<?xml version="1.0" standalone="no"?>
<!DOCTYPE svg PUBLIC "-//W3C//DTD SVG 20010904//EN"
 "http://www.w3.org/TR/2001/REC-SVG-20010904/DTD/svg10.dtd">
<svg version="1.0" xmlns="http://www.w3.org/2000/svg"
 width="4800.000000pt" height="2700.000000pt" viewBox="0 0 4800.000000 2700.000000"
 preserveAspectRatio="xMidYMid meet">

<g transform="translate(0.000000,2700.000000) scale(0.100000,-0.100000)"
fill="#000000" stroke="none">
<path d="M3100 26027 l0 -974 -25 -11 c-74 -34 -1635 -959 -1663 -985 -18 -18
-45 -56 -59 -85 l-26 -53 1 -652 c3 -953 10 -1301 29 -1362 31 -98 47 -108
928 -608 446 -253 830 -466 855 -474 62 -20 163 -12 220 17 44 22 1459 850
1637 958 51 31 96 66 102 79 40 87 -52 220 -137 198 -20 -5 -1313 -758 -1542
-898 -35 -22 -82 -46 -103 -53 -49 -17 -130 -17 -177 0 -69 24 -1423 800
-1458 835 -19 19 -46 59 -61 90 l-25 56 -4 823 c-2 452 -2 822 2 822 3 0 330
-176 728 -391 935 -506 827 -454 923 -453 51 1 93 7 115 17 19 9 391 231 825
494 l790 478 9 49 c12 60 -6 154 -32 176 -10 8 -375 217 -810 464 l-792 449 0
984 0 983 -125 0 -125 0 0 -973z m-10 -1657 c0 -413 0 -414 66 -445 50 -24
137 -17 167 14 22 21 22 27 27 405 l5 384 637 -361 c351 -199 637 -364 637
-367 0 -3 -287 -180 -639 -393 -698 -424 -696 -423 -801 -399 -54 13 -1435
749 -1424 760 10 10 1310 772 1318 772 4 0 7 -167 7 -370z"/>
<path d="M16144 26833 l298 -168 -6 -689 c-3 -379 -6 -881 -6 -1115 l-1 -426
-821 -480 c-539 -315 -836 -494 -864 -521 -26 -26 -50 -63 -64 -100 l-22 -59
9 -980 8 -980 24 -47 c13 -26 40 -65 61 -85 25 -25 325 -201 839 -492 l801
-455 0 -541 c0 -298 -3 -778 -7 -1066 l-6 -524 -786 -460 c-431 -253 -810
-477 -842 -498 -64 -42 -112 -108 -128 -177 -8 -32 -9 -329 -4 -1010 l8 -965
28 -57 c16 -32 47 -74 70 -94 35 -30 635 -375 1481 -852 l189 -107 -6 -1100
c-4 -605 -10 -1101 -15 -1103 -4 -1 -361 -210 -793 -463 -678 -398 -787 -459
-806 -450 -12 5 -591 321 -1288 701 -1224 668 -1267 691 -1313 688 -44 -3 -49
-6 -79 -52 -22 -31 -33 -60 -33 -83 0 -26 8 -43 33 -66 17 -18 592 -340 1279
-717 l1246 -685 -4 -45 c-3 -25 -1 -470 3 -990 l8 -945 27 -55 c15 -30 42 -69
60 -87 31 -29 1588 -921 1688 -966 72 -33 169 -29 250 10 36 17 416 238 845
490 l780 458 15 43 c14 42 14 45 -14 98 -30 58 -65 84 -112 84 -17 0 -285
-152 -763 -432 -405 -238 -752 -440 -771 -449 -50 -25 -118 -32 -174 -19 -61
14 -1431 789 -1483 839 -54 52 -84 128 -89 219 -8 167 -12 1549 -4 1561 6 10
191 -86 781 -405 l774 -419 82 -3 c70 -4 89 -1 135 21 65 30 1576 942 1602
967 24 23 26 152 3 196 -13 25 -161 113 -816 485 l-801 454 0 1110 0 1110 813
476 c901 529 864 503 838 589 -7 23 -27 58 -46 78 -66 72 -28 90 -860 -400
l-740 -435 -5 374 -5 375 -28 24 c-23 20 -39 24 -87 24 -52 0 -64 -4 -92 -29
l-33 -29 -5 -370 -5 -370 -685 388 c-412 234 -701 404 -725 427 -62 58 -86
120 -91 227 -8 192 -12 1542 -5 1555 6 9 196 -89 742 -385 404 -218 758 -409
788 -422 64 -30 173 -34 231 -10 48 21 1591 955 1614 977 24 24 26 153 3 197
-12 23 -170 117 -816 483 l-801 455 0 1058 0 1058 23 9 c46 18 1633 953 1650
973 9 11 17 35 17 54 0 19 2 34 4 34 2 0 379 -207 837 -459 l834 -459 3 -229
c1 -125 6 -568 10 -983 l7 -755 27 -55 c15 -30 42 -69 60 -87 18 -17 400 -239
848 -493 448 -254 819 -466 823 -470 5 -4 5 -491 1 -1083 l-7 -1075 -31 -15
c-77 -37 -1624 -951 -1647 -973 -15 -14 -40 -49 -55 -77 l-29 -52 -3 -245 c-1
-135 1 -582 5 -995 l8 -750 26 -56 c15 -32 44 -71 70 -93 24 -21 409 -245 854
-498 588 -334 826 -464 869 -475 63 -16 125 -12 184 13 19 8 396 226 838 486
613 360 806 478 816 498 l13 27 837 -461 838 -461 1 -485 c1 -267 4 -710 8
-985 6 -497 6 -500 29 -547 13 -26 40 -64 60 -84 33 -32 1562 -911 1678 -965
62 -28 141 -34 205 -16 56 17 1634 936 1677 977 28 28 29 86 3 138 -29 56 -57
77 -105 77 -36 0 -129 -52 -766 -426 -399 -235 -745 -437 -770 -450 -36 -19
-60 -24 -120 -24 -65 1 -83 5 -135 32 -170 90 -1365 775 -1395 800 -19 17 -49
54 -65 84 l-30 54 -6 410 c-10 640 -10 1255 0 1255 5 0 121 -61 258 -136 136
-75 320 -175 408 -222 88 -46 315 -169 505 -272 191 -103 364 -193 385 -200
58 -19 155 -15 208 8 25 11 397 233 827 493 570 345 785 480 791 497 14 37 11
128 -6 169 -15 36 -50 57 -826 498 -446 253 -828 466 -848 473 -52 19 -175 11
-226 -15 -22 -12 -386 -224 -809 -473 -423 -248 -777 -449 -785 -447 -9 2
-594 320 -1300 706 -865 472 -1294 701 -1313 701 -42 0 -65 -15 -95 -62 -33
-53 -35 -109 -3 -143 12 -13 163 -101 336 -196 l314 -172 -28 -17 c-314 -190
-1401 -819 -1437 -832 -64 -22 -107 -22 -170 0 -43 16 -1312 730 -1418 798
-49 32 -94 96 -112 158 -18 68 -34 1666 -16 1666 6 0 341 -178 744 -397 402
-218 755 -407 782 -419 65 -31 180 -33 241 -5 68 31 1587 951 1607 973 13 15
17 38 17 89 0 128 69 79 -829 588 l-801 455 2 1089 3 1090 790 463 c435 255
805 475 823 489 28 22 32 32 32 72 0 82 -58 153 -125 153 -35 0 -3 18 -803
-451 -392 -231 -715 -419 -718 -419 -2 0 -4 171 -4 380 0 406 -2 424 -49 450
-26 13 -114 13 -145 -1 -54 -25 -56 -44 -56 -453 0 -207 -3 -376 -7 -376 -5 0
-316 175 -693 389 -416 236 -699 403 -722 425 -20 20 -47 58 -60 84 l-23 47
-9 817 c-4 450 -6 824 -3 832 6 16 40 -2 496 -253 101 -55 185 -101 187 -101
2 0 194 -103 427 -228 232 -126 437 -234 456 -240 46 -16 140 -15 187 2 48 17
1614 961 1632 984 16 21 16 144 -2 186 -12 29 -92 77 -814 487 l-801 454 -1
1098 c0 1036 1 1098 18 1104 46 17 1620 947 1640 969 43 48 17 151 -50 198
-53 37 -51 38 -838 -424 -412 -242 -754 -440 -760 -440 -6 0 -10 142 -12 386
l-3 386 -28 24 c-23 20 -39 24 -88 24 -33 0 -69 -5 -79 -10 -43 -23 -45 -40
-50 -423 l-5 -367 -670 380 c-368 209 -685 393 -704 408 -19 15 -48 52 -65 82
l-31 55 -7 440 c-5 242 -7 619 -5 837 l2 397 773 -418 c425 -230 787 -422 804
-425 49 -10 132 -7 169 5 29 10 1568 934 1624 975 14 11 20 29 23 77 6 89 -11
141 -52 166 -32 20 -45 21 -297 19 l-264 -3 132 -75 131 -74 -31 -20 c-785
-478 -1240 -752 -1271 -762 -52 -19 -142 -17 -193 4 -63 26 -1373 734 -1373
743 0 4 68 47 152 95 l152 89 -258 3 -258 2 -58 -35 c-33 -20 -77 -56 -99 -81
-72 -82 -71 -72 -70 -673 1 -295 4 -738 8 -986 l6 -450 27 -51 c14 -27 44 -66
65 -85 21 -19 400 -239 842 -489 l803 -455 -6 -704 c-3 -387 -6 -884 -6 -1103
0 -280 -3 -398 -11 -398 -6 0 -368 -210 -804 -466 l-794 -466 -1293 706
c-1110 606 -1299 706 -1334 706 -46 0 -62 -11 -92 -61 -29 -49 -29 -110 1
-142 12 -13 168 -104 347 -202 179 -98 328 -180 332 -184 7 -6 -1462 -871
-1480 -871 -8 0 -12 126 -14 425 -3 422 -3 425 -25 446 -15 16 -38 24 -75 27
-65 5 -101 -8 -125 -45 -16 -25 -18 -64 -23 -424 l-5 -397 -664 377 c-366 208
-681 392 -702 409 -21 18 -50 58 -66 89 l-28 58 -9 818 c-5 491 -5 822 1 828
5 5 312 -156 768 -403 418 -226 783 -418 810 -425 55 -15 139 -10 190 12 55
23 1590 956 1608 977 22 27 24 146 2 191 -13 28 -128 96 -813 484 l-797 452
-3 1115 -2 1116 29 12 c16 7 156 87 310 178 l281 165 -256 3 -256 2 -54 -31
-54 -30 0 30 0 31 -125 0 c-104 0 -125 -2 -125 -15 0 -19 -9 -19 -34 0 -16 12
-68 15 -290 15 l-271 0 299 -167z m298 -3451 c18 -35 60 -52 127 -52 49 0 65
4 88 24 l28 24 5 364 5 364 630 -358 c346 -197 631 -361 632 -365 2 -5 -282
-181 -629 -393 -701 -426 -702 -426 -806 -399 -38 9 -296 143 -745 384 -377
203 -685 370 -683 372 1 1 301 178 667 392 l664 390 2 -362 c2 -262 6 -368 15
-385z m5348 -2574 c1 -286 4 -387 13 -398 28 -37 62 -50 124 -50 51 0 67 4 90
24 l28 24 3 382 c1 210 6 380 11 378 19 -8 1271 -722 1269 -723 -28 -24 -1272
-771 -1300 -781 -48 -16 -135 -18 -175 -4 -51 19 -1393 745 -1390 752 2 9
1307 777 1320 778 4 0 7 -172 7 -382z m-5387 -3790 c33 -65 195 -76 230 -15 9
16 13 125 17 399 l5 376 637 -361 c350 -199 634 -365 630 -369 -4 -4 -292
-180 -641 -392 -688 -419 -689 -419 -792 -397 -33 7 -283 136 -744 384 l-694
373 667 392 667 391 5 -382 c3 -210 9 -390 13 -399z m5420 -3004 c24 -21 38
-24 101 -24 65 0 75 3 97 26 l24 26 5 378 5 378 615 -349 c338 -193 625 -356
638 -363 21 -11 -19 -38 -595 -388 -340 -206 -633 -383 -651 -392 -49 -25
-121 -36 -174 -26 -32 6 -271 129 -743 384 -383 205 -693 376 -688 379 4 2
280 164 613 359 333 195 630 369 660 386 l55 32 5 -391 5 -391 28 -24z m5527
-2168 c19 -7 328 -179 687 -383 l652 -370 -636 -387 c-694 -422 -705 -428
-806 -406 -46 9 -536 267 -1315 691 l-123 66 650 382 c358 210 670 390 693
401 50 23 145 26 198 6z m-10946 -1249 c14 -30 61 -47 129 -47 61 0 67 2 109
43 1 1 5 174 8 384 l5 383 635 -361 c349 -198 636 -361 638 -363 6 -7 -1264
-773 -1302 -786 -49 -16 -130 -15 -177 2 -58 21 -662 348 -689 373 -14 13
-172 103 -352 201 -181 98 -328 181 -328 184 0 3 294 177 653 388 l652 383 5
-383 c3 -211 9 -391 14 -401z"/>
<path d="M38107 26518 c-4 -265 -7 -584 -7 -709 l0 -228 -32 -17 c-18 -9 -386
-224 -818 -476 -657 -384 -793 -468 -836 -512 -90 -95 -85 -21 -76 -1131 l8
-970 23 -52 c13 -30 43 -71 70 -95 30 -28 325 -201 858 -503 l813 -460 0 -516
c0 -284 -3 -779 -7 -1100 l-6 -584 -784 -460 c-431 -253 -790 -461 -797 -463
-7 -2 -590 312 -1296 698 -1318 719 -1317 718 -1370 690 -26 -14 -70 -94 -70
-127 1 -15 7 -39 15 -53 10 -18 360 -216 1275 -720 l1261 -695 5 -920 c2 -506
6 -953 9 -993 6 -91 34 -157 88 -209 49 -47 1658 -964 1722 -982 57 -16 123
-13 180 8 28 10 410 229 850 488 885 520 852 497 827 580 -6 22 -27 57 -46 79
-65 75 -25 94 -856 -396 -404 -238 -757 -441 -785 -451 -59 -21 -125 -23 -176
-5 -41 15 -1387 776 -1435 812 -46 34 -92 108 -103 167 -12 63 -23 1617 -12
1635 6 10 207 -95 767 -398 462 -250 781 -417 814 -426 55 -15 128 -12 180 8
34 13 1580 947 1608 971 19 18 22 30 22 94 0 133 71 82 -829 592 l-801 454 0
1111 1 1111 809 474 c445 261 816 481 825 491 27 30 29 75 6 123 -31 64 -62
90 -110 90 -40 0 -179 -79 -1406 -802 l-120 -70 -5 374 c-5 369 -5 375 -27
396 -15 16 -38 24 -75 27 -65 5 -101 -8 -125 -45 -16 -24 -18 -62 -23 -390
l-5 -364 -680 387 c-374 212 -695 397 -714 411 -46 35 -88 106 -100 167 -11
61 -23 1616 -12 1634 5 8 227 -107 767 -400 417 -226 781 -417 809 -425 65
-17 109 -16 170 5 51 18 1581 937 1623 975 19 18 22 30 22 96 -1 42 -6 88 -13
104 -10 22 -158 111 -812 482 l-800 454 -3 720 -2 721 -123 0 -124 0 -6 -482z
m-7 -1626 c0 -414 -1 -405 60 -437 33 -17 106 -20 144 -5 49 18 51 29 56 430
l5 376 630 -358 c346 -196 631 -361 633 -366 2 -8 -1179 -732 -1264 -775 -43
-22 -121 -30 -172 -19 -23 6 -355 178 -737 383 l-694 373 132 78 c73 42 368
216 657 387 289 170 531 310 538 310 9 1 12 -81 12 -377z m17 -6819 c43 -65
190 -71 226 -9 9 15 13 126 17 397 l5 377 637 -362 c350 -198 633 -364 630
-368 -4 -4 -292 -180 -640 -392 -690 -419 -689 -419 -794 -397 -54 12 -675
340 -729 385 -15 13 -174 104 -354 201 -179 98 -325 180 -325 184 1 3 294 178
653 388 l652 382 3 -380 c2 -337 4 -383 19 -406z"/>
<path d="M41738 26568 c4 -686 4 -695 30 -754 13 -28 40 -67 60 -87 22 -22
359 -219 847 -496 446 -253 816 -464 823 -468 11 -7 12 -208 6 -1085 l-7
-1076 -21 -10 c-52 -24 -1615 -946 -1645 -970 -19 -15 -48 -52 -65 -82 l-31
-55 -3 -280 c-1 -154 1 -604 6 -1000 l8 -720 23 -48 c13 -26 40 -63 60 -83 45
-45 1667 -968 1727 -983 55 -14 108 -14 159 0 46 13 1652 951 1677 980 9 11
18 25 20 31 3 7 347 -176 841 -448 l836 -459 2 -515 c1 -283 4 -726 8 -985 l6
-470 28 -57 c17 -35 45 -71 70 -91 32 -26 748 -439 789 -455 4 -2 8 64 8 147
l0 150 -257 146 c-288 162 -340 204 -367 296 -13 41 -16 189 -22 864 -4 448
-4 815 1 815 8 0 156 -79 463 -248 l182 -101 0 152 0 152 -240 130 -240 129
49 31 c28 16 136 80 240 140 l190 110 1 153 0 153 -27 -15 c-16 -8 -185 -106
-376 -219 l-348 -204 -1227 670 c-1526 833 -1373 753 -1419 741 -73 -18 -122
-135 -81 -195 10 -14 143 -93 336 -199 265 -145 317 -177 303 -186 -9 -6 -331
-196 -717 -422 -442 -259 -718 -415 -748 -423 -61 -15 -132 -6 -194 25 -76 38
-1352 765 -1385 788 -43 30 -86 95 -102 152 -11 41 -15 211 -21 859 -4 490 -3
807 3 807 5 0 354 -187 776 -415 570 -309 781 -418 820 -426 54 -10 111 -6
162 13 49 19 1598 957 1619 981 15 19 18 34 14 102 -2 44 -10 89 -17 100 -7
11 -371 223 -810 472 l-796 452 -3 1089 -2 1090 807 473 c443 261 815 482 825
493 30 32 24 104 -12 154 -34 47 -57 62 -97 62 -20 0 -259 -135 -763 -431
-404 -237 -741 -434 -747 -436 -10 -4 -13 75 -13 376 0 420 -1 427 -60 451
-48 20 -126 8 -158 -24 l-27 -26 -5 -394 -5 -394 -684 388 c-376 214 -700 402
-721 419 -22 17 -51 56 -67 88 l-28 58 -6 490 c-4 270 -7 491 -8 493 0 1 -58
2 -128 2 l-128 0 3 -432z m1786 -5067 c45 -50 158 -54 205 -7 l26 26 5 378 5
378 630 -358 c346 -196 631 -361 632 -365 2 -4 -282 -181 -630 -393 -687 -418
-696 -422 -796 -402 -40 9 -243 113 -747 384 -381 205 -692 374 -690 376 2 1
302 178 667 392 l664 390 5 -389 c5 -362 6 -390 24 -410z"/>
<path d="M43275 26986 c11 -7 82 -45 157 -85 136 -70 138 -71 215 -71 90 0
109 7 268 104 l110 66 -385 0 c-328 0 -382 -2 -365 -14z"/>
<path d="M22934 25535 c-12 -8 -31 -37 -43 -65 -25 -58 -22 -97 10 -126 11
-10 590 -332 1287 -715 l1267 -698 7 -863 c9 -1142 7 -1101 40 -1163 14 -27
41 -64 60 -82 29 -28 1585 -919 1683 -964 56 -26 175 -25 233 1 49 22 1609
936 1632 956 13 10 141 -57 830 -436 l815 -449 7 -970 c7 -1107 1 -1035 92
-1125 42 -43 190 -131 863 -511 l813 -460 -1 -1040 0 -1040 -821 -480 c-528
-308 -837 -494 -863 -520 -85 -83 -80 -40 -83 -745 -1 -344 1 -796 6 -1005 l8
-380 27 -52 c15 -28 44 -66 65 -83 45 -38 1616 -934 1685 -961 56 -22 148 -25
203 -5 34 12 1628 941 1661 968 9 7 270 -132 880 -468 477 -262 873 -482 880
-488 9 -8 14 -251 20 -966 l8 -955 23 -51 c13 -28 41 -69 63 -90 26 -25 318
-197 842 -495 l802 -455 -3 -1110 c-3 -832 -7 -1111 -15 -1117 -7 -4 -372
-218 -812 -476 -651 -380 -811 -478 -857 -523 -97 -94 -91 -16 -81 -1141 l9
-972 24 -50 c13 -27 40 -65 60 -85 21 -21 348 -212 840 -491 443 -251 821
-465 840 -475 27 -14 57 -19 125 -19 109 0 6 -55 1005 532 689 405 746 441
764 476 18 37 18 40 0 85 -26 69 -63 102 -115 102 -37 0 -123 -47 -775 -430
-404 -237 -753 -440 -776 -450 -47 -21 -132 -26 -185 -11 -54 16 -1415 793
-1459 834 -23 20 -52 61 -65 90 l-23 52 -9 819 c-5 450 -5 822 0 827 4 4 328
-166 718 -377 944 -512 833 -458 935 -458 69 0 93 4 128 23 85 44 1567 943
1590 964 19 18 22 30 22 96 0 55 -5 84 -18 105 -14 23 -201 134 -812 481
l-795 452 -3 1110 c-2 1052 -1 1111 15 1115 32 8 1627 948 1645 969 9 10 18
25 20 31 3 7 261 -130 644 -340 351 -194 644 -356 651 -360 8 -5 9 -19 4 -44
-5 -20 -5 -468 -1 -995 7 -883 9 -962 26 -1008 35 -100 52 -111 929 -608 446
-253 830 -466 854 -473 59 -19 126 -17 186 4 53 19 1614 930 1652 965 49 44
36 132 -28 193 -60 58 -32 71 -839 -402 -404 -237 -751 -439 -770 -449 -47
-24 -145 -31 -196 -13 -50 18 -1394 779 -1445 819 -43 34 -86 110 -98 175 -10
53 -19 1619 -9 1629 3 3 347 -179 764 -405 418 -226 783 -418 813 -427 62 -18
133 -12 196 16 22 10 391 230 820 490 744 449 781 473 793 509 16 42 9 129
-12 169 -10 19 -231 150 -822 486 -445 253 -829 466 -854 474 -62 20 -163 12
-220 -17 -25 -13 -382 -221 -793 -462 l-748 -439 -1121 611 c-616 336 -1134
614 -1151 616 -18 3 -43 -1 -57 -8 -59 -32 -92 -156 -51 -197 10 -10 139 -85
287 -166 148 -82 290 -160 317 -175 l47 -27 -718 -421 c-395 -232 -722 -422
-725 -422 -4 0 -7 171 -7 380 0 324 -2 385 -15 411 -19 36 -50 49 -115 49 -41
0 -56 -5 -82 -29 l-33 -29 -3 -376 c-1 -207 -5 -376 -8 -376 -15 0 -1342 760
-1374 788 -21 18 -51 58 -67 90 l-28 57 -8 695 c-4 382 -6 747 -5 811 l3 116
300 -166 c255 -140 307 -165 345 -166 39 -1 105 -34 473 -234 470 -255 492
-264 598 -242 47 10 194 95 850 492 437 263 802 489 811 500 23 28 25 147 3
192 -13 28 -126 94 -791 472 -427 242 -801 453 -832 469 -69 35 -164 45 -232
23 -25 -7 -407 -227 -850 -487 -443 -260 -809 -473 -815 -473 -5 0 -601 322
-1322 716 -1164 636 -1318 717 -1356 717 -50 0 -65 -10 -95 -63 -30 -52 -29
-107 2 -138 13 -13 151 -94 307 -179 155 -85 288 -160 296 -165 10 -8 -156
-110 -679 -416 -381 -224 -708 -411 -727 -418 -62 -20 -140 -14 -206 18 -136
66 -1383 782 -1417 815 -75 71 -81 95 -89 341 -8 234 -12 1455 -5 1455 2 0
348 -186 769 -414 421 -228 783 -419 804 -425 55 -16 121 -13 178 8 48 17
1594 947 1625 977 20 20 20 158 0 198 -12 22 -177 120 -817 483 l-803 456 0
911 c0 501 3 974 6 1051 l7 140 809 475 c839 492 838 491 838 555 0 35 -34 99
-66 124 -59 46 -43 54 -839 -413 l-740 -434 -5 423 c-5 411 -6 424 -26 452
-19 26 -27 28 -95 31 -70 3 -77 1 -99 -23 l-25 -27 -5 -432 -5 -433 -688 391
c-378 215 -703 403 -721 418 -19 15 -49 57 -67 93 l-32 65 -5 826 -5 826 53
-27 c29 -15 183 -99 342 -186 159 -87 291 -159 293 -159 2 0 192 -102 422
-227 230 -124 438 -232 462 -240 61 -18 132 -16 188 5 52 20 1585 943 1618
974 16 15 20 32 20 91 0 130 71 80 -830 591 -441 251 -818 462 -837 470 -60
26 -130 30 -191 12 -36 -10 -330 -177 -848 -481 l-792 -465 -1293 705 c-1258
687 -1294 706 -1340 703 -45 -3 -51 -6 -79 -48 -36 -54 -41 -116 -11 -149 10
-11 164 -100 342 -198 178 -98 320 -181 316 -185 -21 -20 -1376 -808 -1407
-818 -48 -16 -123 -16 -171 0 -47 16 -1395 780 -1443 818 -19 15 -48 52 -65
82 l-31 55 -6 335 c-4 184 -7 562 -8 838 l-1 504 98 -53 c53 -28 206 -112 340
-185 133 -74 244 -134 247 -134 2 0 191 -102 421 -226 229 -124 437 -233 461
-241 61 -21 164 -13 221 16 109 56 1570 945 1591 968 21 24 23 34 19 102 -3
42 -9 85 -16 97 -10 19 -1566 911 -1659 951 -49 21 -165 21 -216 0 -20 -9
-391 -224 -823 -477 l-786 -461 -1292 705 c-1374 750 -1336 731 -1392 691z
m4465 -746 c26 -6 314 -163 708 -387 534 -303 660 -378 646 -386 -10 -5 -297
-179 -638 -386 -341 -207 -635 -382 -654 -388 -43 -15 -128 -15 -170 -1 -32
11 -1380 735 -1392 747 -10 10 1294 773 1356 794 58 20 83 21 144 7z m5306
-3000 c37 -10 1313 -727 1343 -754 10 -9 -117 -90 -594 -381 -334 -203 -628
-380 -652 -393 -54 -27 -141 -38 -197 -22 -34 9 -1387 729 -1407 749 -9 9
1287 771 1350 794 55 20 102 22 157 7z m-185 -6689 c0 -407 1 -414 60 -445 16
-8 54 -15 84 -15 44 0 61 5 83 24 l28 24 5 385 5 384 637 -361 c351 -199 638
-363 638 -366 0 -12 -1267 -774 -1309 -787 -28 -9 -68 -13 -104 -10 -54 5
-112 34 -750 377 -381 205 -695 375 -699 379 -7 6 1296 779 1315 781 4 0 7
-167 7 -370z m5631 -2641 c41 -14 1339 -748 1339 -758 0 -4 -284 -180 -632
-391 -437 -266 -648 -388 -685 -399 -99 -27 -107 -24 -803 351 -349 188 -661
356 -692 373 l-57 31 667 391 c367 215 681 395 697 401 41 14 125 14 166 1z
m4980 -2823 c20 -7 329 -179 687 -382 494 -280 648 -372 639 -380 -15 -15
-1200 -735 -1254 -762 -54 -28 -123 -36 -180 -23 -71 18 -335 163 -350 194 -7
13 -19 29 -25 35 -7 5 -233 130 -503 277 -269 146 -493 270 -497 273 -3 4 228
144 514 312 709 415 769 449 803 459 44 13 125 12 166 -3z m-5201 -3982 l0
-366 28 -28 c51 -50 157 -52 203 -4 l24 26 3 360 c2 278 6 359 15 355 10 -4
1060 -598 1225 -694 l43 -25 -614 -373 c-338 -205 -634 -383 -657 -395 -53
-27 -127 -36 -184 -21 -25 6 -356 178 -736 383 -571 306 -689 373 -673 381 10
6 308 181 663 389 354 208 648 378 652 378 4 0 8 -165 8 -366z"/>
<path d="M5667 17546 c-21 -8 -126 -66 -235 -129 -986 -577 -1413 -830 -1444
-857 -21 -17 -50 -52 -65 -78 l-28 -47 -3 -625 c-1 -344 1 -798 6 -1010 l7
-385 30 -54 c16 -29 48 -68 70 -85 57 -46 1629 -937 1690 -958 64 -22 126 -22
190 0 79 28 1625 938 1662 978 l31 35 833 -458 832 -459 3 -439 c11 -1438 12
-1507 30 -1560 34 -99 51 -110 929 -608 446 -253 830 -466 855 -474 74 -24
166 -13 242 29 245 135 1578 925 1601 949 35 37 35 77 1 140 -30 55 -79 85
-122 74 -15 -4 -355 -199 -757 -435 -401 -235 -746 -435 -765 -445 -47 -24
-145 -31 -195 -13 -67 24 -1427 801 -1462 836 -59 59 -76 105 -84 232 -9 127
-13 1549 -6 1557 3 3 131 -64 284 -148 153 -84 341 -186 418 -227 77 -41 282
-151 455 -245 403 -218 409 -221 490 -221 36 0 81 5 102 12 20 7 393 229 830
492 882 534 825 492 815 601 -3 32 -11 69 -18 84 -11 22 -186 126 -814 483
-440 250 -825 464 -855 475 -69 24 -166 20 -226 -11 -23 -12 -388 -224 -810
-473 -423 -248 -773 -451 -779 -451 -5 0 -588 315 -1295 701 -706 387 -1297
705 -1312 708 -47 9 -84 -14 -114 -71 -30 -58 -29 -110 4 -139 9 -8 159 -93
333 -189 l316 -174 -690 -404 c-379 -223 -710 -416 -735 -429 -57 -29 -142
-37 -202 -18 -25 8 -355 190 -735 406 -578 328 -697 399 -736 441 -85 89 -80
38 -86 963 -3 449 -2 817 2 817 4 0 353 -187 775 -415 596 -323 779 -417 821
-425 62 -11 139 -1 191 26 56 29 1573 947 1588 961 22 20 21 170 -1 204 -17
25 -1596 929 -1669 956 -46 16 -145 16 -193 -1z m200 -304 c50 -21 1323 -744
1323 -752 -1 -8 -1213 -741 -1273 -770 -67 -32 -162 -33 -223 -4 -168 83
-1373 739 -1367 745 16 15 1280 753 1328 775 61 29 150 31 212 6z m5345 -2976
c40 -15 1338 -748 1337 -756 0 -6 -1137 -697 -1237 -752 -77 -43 -147 -55
-213 -38 -57 15 -1423 750 -1412 760 10 10 1254 740 1303 765 72 37 155 45
222 21z"/>
<path d="M590 14454 c-25 -8 -166 -86 -315 -173 l-270 -159 -3 -152 c-2 -120
0 -151 10 -147 7 2 136 77 287 165 303 178 343 194 436 175 40 -9 215 -104
697 -377 355 -202 652 -372 661 -379 14 -10 -74 -67 -622 -400 -699 -424 -696
-423 -804 -400 -29 6 -117 46 -199 90 -114 61 -149 85 -161 108 -11 23 -47 48
-156 108 -78 42 -144 77 -147 77 -2 0 -3 -77 -2 -172 l3 -172 290 -158 c160
-87 312 -164 339 -173 58 -18 116 -19 171 -4 22 6 401 229 843 496 672 406
803 489 809 511 11 40 8 122 -5 163 -12 34 -47 55 -827 498 -448 255 -836 469
-861 477 -59 17 -116 17 -174 -2z"/>
<path d="M47183 12542 c-446 -262 -826 -490 -843 -507 -18 -16 -44 -50 -58
-75 l-27 -45 2 -990 c2 -985 2 -991 23 -1048 13 -36 37 -72 63 -98 28 -27 207
-135 527 -316 267 -151 630 -357 808 -458 l322 -183 0 151 0 152 -671 380
c-369 209 -690 397 -713 417 -27 23 -53 59 -70 98 l-28 61 -5 826 -6 826 54
-30 c100 -57 1408 -763 1423 -769 14 -5 16 12 16 143 l0 149 -659 354 c-362
195 -657 357 -656 360 2 3 299 179 659 390 l656 385 0 153 c0 83 -1 152 -2
152 -2 -1 -368 -215 -815 -478z"/>
<path d="M5766 11729 c-57 -13 -1660 -954 -1710 -1004 -47 -45 -73 -94 -84
-157 -4 -24 -4 -469 -1 -990 8 -1081 2 -1012 93 -1102 42 -43 191 -131 855
-506 l803 -455 -6 -239 c-3 -132 -6 -635 -6 -1118 0 -623 -3 -878 -11 -878 -6
0 -358 -204 -782 -452 -424 -249 -776 -452 -781 -450 -5 2 -512 277 -1126 613
-829 452 -1125 609 -1149 609 -46 0 -67 -14 -96 -64 -32 -54 -33 -106 -3 -139
13 -14 160 -100 328 -192 168 -91 308 -170 312 -174 6 -5 -976 -589 -1335
-793 -118 -67 -180 -84 -254 -68 -35 8 -168 78 -430 226 l-378 214 -3 -147
c-1 -80 1 -150 5 -154 20 -19 732 -417 768 -429 59 -20 153 -16 206 7 25 11
404 231 843 488 608 357 801 475 811 496 l15 27 617 -340 c340 -187 630 -347
645 -356 l27 -17 5 -991 c7 -1113 2 -1055 81 -1141 38 -43 151 -111 861 -514
449 -255 833 -470 853 -477 48 -18 156 -18 206 1 62 23 1627 944 1653 973 28
32 29 82 2 133 -38 76 -96 99 -163 65 -18 -9 -358 -208 -757 -443 -797 -468
-793 -465 -897 -440 -42 11 -246 121 -753 409 -382 217 -709 407 -725 422 -17
15 -44 51 -60 80 l-30 53 -7 405 c-5 223 -7 599 -6 837 l3 431 710 -385 c888
-482 851 -463 936 -463 36 0 84 6 105 14 35 12 1604 954 1629 977 17 17 19
137 1 182 l-16 42 -800 454 -800 455 0 1118 c0 835 3 1118 11 1118 7 0 378
215 826 478 843 494 843 494 843 557 0 35 -34 99 -66 124 -29 23 -83 28 -117
10 -12 -7 -347 -203 -745 -436 -398 -233 -729 -426 -737 -429 -12 -5 -15 51
-17 374 -3 369 -4 381 -24 409 -19 26 -27 28 -95 31 -70 3 -77 1 -99 -23 l-25
-27 -5 -373 -5 -374 -670 380 c-368 209 -686 393 -705 408 -19 15 -51 58 -70
95 l-34 68 -4 825 -4 825 43 -23 c24 -12 368 -197 764 -412 396 -215 740 -396
764 -404 56 -17 116 -17 173 1 41 12 1574 931 1631 976 19 16 22 28 22 92 0
132 72 80 -833 595 -444 251 -829 465 -857 475 -54 19 -108 21 -169 7z m149
-300 c36 -10 1313 -726 1342 -753 10 -9 -131 -99 -618 -395 -348 -212 -648
-390 -668 -397 -43 -16 -113 -17 -161 -4 -32 9 -1384 731 -1402 749 -10 9
1314 786 1362 799 48 14 97 14 145 1z m-211 -6797 c-8 -385 -6 -399 55 -435
34 -20 121 -23 154 -5 45 24 46 30 48 313 1 149 4 311 8 362 l6 91 615 -350
c338 -192 625 -355 637 -361 20 -11 -34 -46 -610 -396 -348 -212 -650 -391
-672 -399 -26 -9 -65 -12 -111 -10 -65 4 -81 10 -225 88 -121 65 -157 90 -169
113 -13 26 -96 75 -522 306 -278 152 -501 279 -495 283 7 3 296 173 642 377
347 204 634 371 638 371 5 0 5 -157 1 -348z"/>
<path d="M1575 10973 c-407 -239 -757 -441 -779 -449 -49 -18 -133 -18 -182 0
-22 7 -166 86 -322 175 -155 88 -285 161 -287 161 -3 0 -5 -67 -5 -149 l0
-149 287 -163 c158 -89 303 -168 323 -175 45 -17 147 -18 191 -2 43 14 1626
942 1656 970 35 32 39 79 13 133 -29 61 -62 85 -114 84 -36 0 -138 -57 -781
-436z"/>
<path d="M21875 9398 c-52 -19 -1648 -959 -1683 -992 -19 -17 -46 -53 -60 -81
l-27 -50 -3 -310 c-1 -170 1 -618 6 -995 8 -683 8 -685 30 -736 13 -28 40 -67
60 -87 35 -34 1556 -907 1682 -965 42 -20 70 -25 125 -25 38 0 83 6 100 12 50
20 1618 943 1648 969 39 37 38 103 -3 160 -44 61 -91 78 -143 51 -12 -7 -353
-205 -757 -442 -526 -309 -750 -435 -789 -445 -104 -27 -98 -29 -864 405 -457
260 -715 411 -740 437 -21 21 -49 59 -61 85 -20 44 -21 63 -27 511 -11 790
-10 1190 2 1190 6 0 349 -183 762 -407 414 -224 768 -413 787 -420 45 -16 155
-16 200 0 46 17 1611 963 1628 984 16 22 16 145 -2 186 -12 29 -102 82 -827
494 -448 254 -827 467 -842 472 -36 14 -163 13 -202 -1z m166 -292 c38 -10
266 -134 710 -387 360 -204 655 -372 656 -373 4 -3 -1230 -752 -1275 -773 -53
-26 -147 -31 -202 -11 -43 15 -1384 736 -1388 746 -1 4 299 184 667 400 622
365 692 403 766 411 6 1 36 -5 66 -13z"/>
<path d="M705 8091 c-33 -17 -204 -115 -380 -219 l-320 -188 -3 -152 c-1 -84
-1 -152 2 -152 2 0 159 91 347 202 189 110 362 209 384 219 61 26 114 31 171
16 32 -8 297 -153 700 -381 357 -203 653 -372 657 -376 10 -9 -1243 -772
-1297 -790 -21 -7 -67 -11 -104 -8 -64 3 -78 10 -307 133 -132 71 -307 166
-390 212 -82 46 -153 83 -157 83 -5 0 -8 -67 -8 -149 l0 -149 366 -198 c202
-110 385 -207 408 -216 63 -26 169 -23 231 6 68 31 1575 943 1600 967 29 28
29 166 0 205 -21 27 -1585 923 -1659 950 -21 8 -71 14 -110 14 -58 0 -82 -5
-131 -29z"/>
<path d="M47220 6694 c-600 -352 -784 -465 -817 -499 -76 -82 -73 -54 -72
-819 1 -375 4 -820 8 -991 l6 -310 29 -53 c17 -29 44 -66 61 -80 27 -25 1544
-892 1559 -892 3 0 6 67 6 148 l0 148 -639 363 c-397 225 -654 377 -676 399
-74 74 -78 92 -86 337 -9 262 -11 1455 -4 1455 3 0 313 -166 688 -369 375
-204 690 -373 700 -376 16 -7 17 4 17 141 l0 149 -620 334 c-341 183 -620 335
-620 336 0 1 279 166 620 366 l620 364 0 153 c0 83 -1 152 -2 152 -2 -1 -352
-206 -778 -456z"/>
<path d="M27279 6440 c-26 -4 -57 -14 -70 -21 -13 -7 -384 -223 -824 -481
-882 -517 -879 -515 -911 -626 -15 -52 -16 -139 -8 -1027 l9 -970 28 -57 c15
-31 44 -71 65 -90 21 -18 399 -238 840 -488 l802 -455 0 -426 c0 -234 -3 -730
-7 -1101 l-6 -675 -26 -11 c-20 -7 13 -10 132 -11 l157 -1 0 1100 0 1100 23 9
c53 21 1614 944 1635 967 61 69 -10 214 -104 214 -34 0 -4 17 -811 -456 -397
-233 -727 -424 -732 -424 -8 0 -11 120 -11 379 l0 379 -26 31 c-24 29 -30 31
-91 31 -35 0 -73 -5 -83 -10 -43 -23 -45 -40 -50 -422 l-5 -367 -655 372
c-360 205 -672 382 -692 395 -49 30 -96 95 -113 157 -11 40 -15 214 -21 859
l-7 809 21 -5 c11 -3 357 -188 769 -410 411 -223 763 -410 782 -417 43 -14
138 -14 182 0 19 6 395 229 835 495 600 363 803 490 808 507 3 12 6 48 6 80 0
116 64 71 -831 580 -443 251 -820 463 -839 470 -48 20 -116 26 -171 17z m121
-301 c27 -6 307 -159 707 -386 365 -207 662 -378 660 -379 -27 -23 -1272 -770
-1300 -780 -52 -18 -138 -18 -185 1 -57 24 -1382 738 -1382 745 0 14 1327 785
1370 796 56 16 74 16 130 3z"/>
<path d="M39018 3959 c-61 -23 -99 -147 -60 -195 9 -12 546 -313 1192 -669
l1176 -646 2 -682 c3 -953 10 -1260 29 -1321 28 -89 87 -135 379 -299 l261
-147 261 2 261 3 -412 235 c-373 213 -415 240 -448 283 -65 87 -62 55 -69 923
-3 435 -3 802 0 817 5 26 14 22 745 -375 407 -221 765 -412 795 -424 65 -28
147 -31 210 -9 46 16 1591 945 1625 977 16 15 20 31 20 91 0 129 72 78 -842
597 -503 286 -835 469 -867 477 -65 18 -145 10 -205 -21 -25 -12 -386 -222
-801 -466 -415 -244 -762 -445 -770 -447 -9 -3 -552 288 -1206 645 -654 357
-1202 652 -1219 655 -16 3 -42 1 -57 -4z m4263 -663 c37 -11 1320 -733 1341
-754 9 -9 -1235 -768 -1290 -788 -47 -17 -129 -18 -173 -2 -38 13 -257 131
-927 498 -364 199 -460 256 -450 265 30 27 1306 769 1343 781 53 17 102 17
156 0z"/>
<path d="M6769 2899 c-12 -12 -30 -41 -41 -66 -24 -54 -17 -94 21 -125 15 -13
595 -335 1289 -717 l1262 -695 0 -595 c0 -328 3 -620 6 -648 l7 -53 126 0 126
0 -3 576 -3 576 63 -34 c429 -237 1424 -773 1479 -797 53 -25 157 -28 215 -7
35 12 1604 954 1629 977 17 17 19 137 1 182 l-16 42 -826 469 -826 469 -78 5
c-47 3 -93 0 -116 -8 -22 -7 -396 -222 -832 -478 l-793 -465 -37 20 c-20 12
-603 329 -1294 707 -1356 740 -1308 716 -1359 665z m4518 -759 c29 -13 1294
-726 1320 -744 3 -3 -1232 -752 -1276 -774 -39 -20 -58 -22 -126 -19 l-80 3
-675 364 c-749 403 -711 382 -708 392 2 6 1033 615 1282 758 91 51 174 58 263
20z"/>
<path d="M44153 1058 c-63 -69 -69 -154 -14 -195 9 -6 154 -87 323 -180 169
-92 307 -170 307 -173 0 -3 -194 -119 -431 -257 l-432 -253 261 0 260 0 278
163 c199 117 281 171 292 190 8 15 17 26 21 23 4 -2 159 -88 345 -190 l339
-186 263 2 263 3 -980 535 c-846 462 -986 535 -1027 538 -38 2 -50 -1 -68 -20z"/>
<path d="M47377 368 l-619 -363 256 -3 256 -2 353 206 c193 114 358 212 365
218 9 9 12 50 10 159 l-3 148 -618 -363z"/>
</g>
</svg>
